<svg data-name="Layer 1" xmlns="http://www.w3.org/2000/svg" viewBox="0 0 250 50"><title>spriteIBM</title><path fill="#fff" d="M11.75 34.55v-21h-1v22h30v-1h-29z"/><path fill="#fff" d="M13.75 24.55h7v8h-7zM29.75 16.55h-7v16h7zm-2 14h-3v-12h3zM31.75 21.55h7v1h-7zM31.75 23.55h7v1h-7zM31.75 25.55h7v1h-7zM31.75 27.55h7v1h-7zM31.75 29.55h7v1h-7zM31.75 31.55h7v1h-7zM189.81 34.38v1.48h-29.62V14.14h1.48v20.24zm-24.19-3.46a2.44 2.44 0 0 0 2.47-2.47 2.65 2.65 0 0 0-.4-1.38l3.46-4.25a2.88 2.88 0 0 0 .89.2 2.32 2.32 0 0 0 1.53-.54l3.51 2.32a3.36 3.36 0 0 0-.1.69 2.47 2.47 0 1 0 4.94 0 2.76 2.76 0 0 0-.35-1.28l3.8-4.34a2.21 2.21 0 0 0 1 .2 2.47 2.47 0 1 0-2.47-2.47 2.76 2.76 0 0 0 .35 1.28l-3.8 4.34a2.21 2.21 0 0 0-1-.2 2.32 2.32 0 0 0-1.53.54l-3.51-2.32a2.93 2.93 0 0 0 .1-.69 2.47 2.47 0 0 0-4.94 0 2.65 2.65 0 0 0 .4 1.38l-3.46 4.25a1.69 1.69 0 0 0-.89-.2 2.47 2.47 0 1 0 0 4.94zM225 11v14h-14a14 14 0 1 0 14-14zm2 2.17A12 12 0 0 1 237 25h-10zM225 37a12 12 0 0 1-11.83-10h23.65A12 12 0 0 1 225 37z"/><path d="M223 11.16A14 14 0 0 0 211.16 23H223zM90 25.55a1.61 1.61 0 1 1-1.61-1.61A1.58 1.58 0 0 1 90 25.55zm-4.29 5.36a3.75 3.75 0 1 0 3.75 3.75 3.73 3.73 0 0 0-3.75-3.75zm-10.77 3a7.5 7.5 0 1 1-12.64-6.27 12.64 12.64 0 0 1-1.23-5.3 11.79 11.79 0 1 1 13.88 11.57zM83 22.34a10.18 10.18 0 1 0-19.39 4.29 7.32 7.32 0 0 1 3.86-1.07 7.46 7.46 0 0 1 7.45 6.75A10.22 10.22 0 0 0 83 22.34zM110.27 13.21v23.58h29.46V13.21zm20.63 4.42v4.91h-5.4v-4.91zm7.37 11.29h-5.89V24h5.89zM111.74 24H124v4.91h-12.26zM124 17.63v4.91h-12.26v-4.91zm-12.26 17.68V30.4H124v4.91zm13.75 0V30.4h5.4v4.91zm6.88 0V30.4h5.89v4.91zm5.89-12.77h-5.89v-4.91h5.89z" fill="#fff"/></svg>