<svg id="Layer_1" xmlns="http://www.w3.org/2000/svg" viewBox="0 0 128 32"><style>.st0{fill:#010101}.st1{fill:#3dbb61}.st2{fill:#fff}.st3{fill:#e02730}.st4{fill:#fdd13a}.st5{fill:#0530ad}</style><title>spriteIBM</title><path class="st0" d="M112 26.3c-5.7 0-10.3-4.6-10.3-10.3S106.3 5.7 112 5.7s10.3 4.6 10.3 10.3c0 5.7-4.6 10.3-10.3 10.3z"/><ellipse class="st1" cx="16" cy="16" rx="16" ry="16"/><path class="st2" d="M13.7 22.7L7.1 16l2.2-2.3 4.4 4.6 9-9 2.2 2.2z"/><circle class="st3" cx="48" cy="16" r="16"/><path class="st2" d="M40.7 14.5h14.5v2.9H40.7z"/><path class="st4" d="M79.9 2.3l-16 27.3h32z"/><path class="st2" d="M78.9 13.4v2.2l.5 5.3h1.1l.5-5.3v-2.2z"/><ellipse class="st2" cx="79.9" cy="22.9" rx="1" ry="1"/><circle class="st5" cx="112" cy="16" r="16"/><path class="st2" d="M114.3 13.7h-6.8V16h2.2v6.8h-2.2v2.3h9v-2.3h-2.2z"/><circle class="st2" cx="112" cy="9.1" r="2.3"/></svg>