<svg id="Layer_1" xmlns="http://www.w3.org/2000/svg" viewBox="0 0 896 160"><style>.st0{fill:#054ada}.st1{fill:#fdd13a}.st2{fill:#418cff}.st3{fill:#97c1ff}.st4{fill:#fff}.st5{fill:#efcb35}.st6{fill:#3d3d3d}</style><title>spriteIBM</title><path class="st0" d="M20.3 10.3L16 14.6l-4.3-4.3-1.4 1.4 4.3 4.3-4.3 4.3 1.4 1.4 4.3-4.3 4.3 4.3 1.4-1.4-4.3-4.3 4.3-4.3z"/><path class="st0" d="M16 2C8.3 2 2 8.3 2 16s6.3 14 14 14 14-6.3 14-14S23.7 2 16 2zm0 26C9.4 28 4 22.6 4 16S9.4 4 16 4s12 5.4 12 12-5.4 12-12 12z"/><path transform="rotate(-45.001 186.483 5.55)" class="st0" d="M184.4 1.3h4.2v8.5h-4.2z"/><path class="st0" d="M165 21l6 6 15-15-6-6-15 15zm6 3.2l-3.2-3.2L180 8.8l3.2 3.2L171 24.2zM161 31l5-2-3-3zM111.3 10.7l4.3 4.3H104v2h11.6l-4.3 4.3 1.4 1.4 6.7-6.7-6.7-6.7z"/><path class="st0" d="M112 2c-7.7 0-14 6.3-14 14s6.3 14 14 14 14-6.3 14-14-6.3-14-14-14zm0 26c-6.6 0-12-5.4-12-12s5.4-12 12-12 12 5.4 12 12-5.4 12-12 12zM315.5 16c0-.6-.1-1.2-.2-1.8L319 11l-3.1-5.1-4.4 1.4c-1-.9-2.2-1.6-3.5-2.1L307 1h-6l-1 4.2c-1.3.5-2.5 1.2-3.6 2.1l-4.3-1.4L289 11l3.6 3.2c-.1.6-.1 1.2-.1 1.8s.1 1.2.2 1.8L289 21l3.1 5.1 4.4-1.4c1 .9 2.2 1.6 3.5 2.1l1 4.2h6l1-4.2c1.3-.5 2.5-1.2 3.6-2.1l4.4 1.4 3-5.1-3.7-3.2c.1-.6.2-1.2.2-1.8zm.9 5.4l-1.4 2.3-2.9-.9-1.1-.4-.9.7c-.9.8-1.9 1.3-3 1.7l-1 .4-.3 1.1-.6 2.7h-2.8l-.6-2.7-.2-1.1-1-.4c-1.1-.4-2.1-1-3-1.7l-.9-.7-1.1.4-2.9.9-1.4-2.3 2.4-2.1.8-.7-.2-1.1c-.1-.5-.1-1-.2-1.5 0-.5 0-1 .1-1.5l.2-1.1-.8-.7-2.4-2.1 1.4-2.3 2.9.9 1.1.4.9-.7c.9-.8 1.9-1.3 3-1.7l1-.4.3-1.1.6-2.7h2.8l.6 2.7.2 1.1 1 .4c1.1.4 2.1 1 3 1.7l.9.7 1.1-.4 2.9-.9 1.4 2.3-2.4 2.1-.8.7.2 1.1c.1.5.1 1 .2 1.5 0 .5 0 1-.1 1.5l-.2 1.1.8.7 2.4 2.1z"/><path class="st0" d="M304 10c-3.3 0-6 2.7-6 6s2.7 6 6 6 6-2.7 6-6-2.7-6-6-6zm0 8c-1.1 0-2-.9-2-2s.9-2 2-2 2 .9 2 2-.9 2-2 2zM80 2c-7.7 0-14 6.3-14 14s6.3 14 14 14 14-6.3 14-14S87.7 2 80 2zm0 26c-6.6 0-12-5.4-12-12S73.4 4 80 4s12 5.4 12 12-5.4 12-12 12z"/><path class="st0" d="M80.7 10.7l-1.4-1.4-6.7 6.7 6.7 6.7 1.4-1.4-4.3-4.3H88v-2H76.4zM140 1c-6.1 0-11 4.9-11 11s4.9 11 11 11 11-4.9 11-11-4.9-11-11-11zm0 20c-5 0-9-4-9-9s4-9 9-9 9 4 9 9-4 9-9 9z"/><path transform="rotate(-45.001 153.982 26.051)" class="st0" d="M151.9 21.1h4.2V31h-4.2z"/><circle class="st0" cx="149" cy="21" r="1"/><path class="st0" d="M44 2h8v2h-8zM38 5v5h1v20h18V10h1V5H38zm17 23H41V12h14v16z"/><path class="st0" d="M43 14h1v12h-1zM46 14h1v12h-1zM49 14h1v12h-1zM52 14h1v12h-1zM255 13l-11-1-4-11-4 11-11 1 9 7-3 11 9-7 9 7-3-11 9-7zm-13.8 9.4l-1.2-1-1.2 1-4.3 3.3 1.4-5.2.4-1.3-1.1-.8-5-3.9 6-.5 1.3-.1.4-1.2 2.1-5.8 2.1 5.8.4 1.2 1.3.1 6 .5-5 3.9-1.1.8.4 1.3 1.4 5.2-4.3-3.3zM208 21c5.5 0 10-4.5 10-10s-4.5-10-10-10-10 4.5-10 10 4.5 10 10 10zm0-18c4.4 0 8 3.6 8 8s-3.6 8-8 8-8-3.6-8-8 3.6-8 8-8zM216 23h-16c-2.2 0-4 1.8-4 4v4h24v-4c0-2.2-1.8-4-4-4z"/><path class="st1" d="M272 22.7l-7.2 5.7 2.3-8.8-7.5-5.8 9.1-.9 3.3-9 3.3 9 9.1.9-7.5 5.8 2.3 8.8z"/><path class="st0" d="M272 6.8l2.1 5.8.4 1.2 1.3.1 6 .5-5 3.9-1 .8.4 1.3 1.4 5.2-4.3-3.3-1.2-1-1.2 1-4.3 3.3 1.4-5.2.4-1.3-1-.8-5-3.9 6-.5 1.3-.1.4-1.2 1.9-5.8m0-5.8l-4 11-11 1 9 7-3 11 9-7 9 7-3-11 9-7-11-1-4-11zM346 2V0h-4v2h-12V0h-4v2h-6v30h32V2h-6zm2 26h-24V10h24v18z"/><path class="st0" d="M328 14h4v4h-4zM340 14h4v4h-4zM334 14h4v4h-4zM328 20h4v4h-4zM340 20h4v4h-4zM334 20h4v4h-4zM394.7 29.4L408.1 16 394.7 2.6l-2.8 2.8L402.5 16l-10.6 10.6zM445.4 10.7l-2.8-2.8L432 18.5 421.4 7.9l-2.8 2.8L432 24.1zM354.6 21.3l2.8 2.8L368 13.5l10.6 10.6 2.8-2.8L368 7.9zM469.3 2.6L455.9 16l13.4 13.4 2.8-2.8L461.5 16l10.6-10.6z"/><path class="st2" d="M20.3 42.3L16 46.6l-4.3-4.3-1.4 1.4 4.3 4.3-4.3 4.3 1.4 1.4 4.3-4.3 4.3 4.3 1.4-1.4-4.3-4.3 4.3-4.3z"/><path class="st2" d="M16 34C8.3 34 2 40.3 2 48s6.3 14 14 14 14-6.3 14-14-6.3-14-14-14zm0 26C9.4 60 4 54.6 4 48s5.4-12 12-12 12 5.4 12 12-5.4 12-12 12z"/><path transform="rotate(-45.001 186.482 37.55)" class="st2" d="M184.4 33.3h4.2v8.5h-4.2z"/><path class="st2" d="M165 53l6 6 15-15-6-6-15 15zm6 3.2l-3.2-3.2L180 40.8l3.2 3.2L171 56.2zM161 63l5-2-3-3zM111.3 42.7l4.3 4.3H104v2h11.6l-4.3 4.3 1.4 1.4 6.7-6.7-6.7-6.7z"/><path class="st2" d="M112 34c-7.7 0-14 6.3-14 14s6.3 14 14 14 14-6.3 14-14-6.3-14-14-14zm0 26c-6.6 0-12-5.4-12-12s5.4-12 12-12 12 5.4 12 12-5.4 12-12 12zM315.5 48c0-.6-.1-1.2-.2-1.8L319 43l-3.1-5.1-4.4 1.4c-1-.9-2.2-1.6-3.5-2.1l-1-4.2h-6l-1 4.2c-1.3.5-2.5 1.2-3.6 2.1l-4.4-1.4-3 5.1 3.6 3.2c-.2 1.2-.2 2.4 0 3.6L289 53l3.1 5.1 4.4-1.4c1 .9 2.2 1.6 3.5 2.1l1 4.2h6l1-4.2c1.3-.5 2.5-1.2 3.6-2.1l4.4 1.4 3-5.1-3.7-3.2c.1-.6.2-1.2.2-1.8zm.9 5.4l-1.4 2.3-2.9-.9-1.1-.3-.9.7c-.9.8-1.9 1.3-3 1.7l-1 .4-.3 1-.6 2.7h-2.8l-.6-2.7-.2-1.1-1-.4c-1.1-.4-2.1-1-3-1.7l-.9-.7-1.1.3-2.9.9-1.4-2.3 2.4-2.1.8-.7-.2-1.1c-.2-1-.2-2 0-3l.2-1.1-.8-.7-2.4-2.1 1.4-2.3 2.9.9 1.1.3.9-.7c.9-.8 1.9-1.3 3-1.7l1-.4.2-1.1.6-2.7h2.8l.6 2.7.2 1.1 1 .4c1.1.4 2.1 1 3 1.7l.9.7 1.1-.3 2.9-.9 1.4 2.3-2.4 2.1-.8.7.2 1.1c.2 1 .2 2 0 3l-.2 1.1.8.7 2.5 2.2z"/><path class="st2" d="M304 42c-3.3 0-6 2.7-6 6s2.7 6 6 6 6-2.7 6-6-2.7-6-6-6zm0 8c-1.1 0-2-.9-2-2s.9-2 2-2 2 .9 2 2-.9 2-2 2zM80 34c-7.7 0-14 6.3-14 14s6.3 14 14 14 14-6.3 14-14-6.3-14-14-14zm0 26c-6.6 0-12-5.4-12-12s5.4-12 12-12 12 5.4 12 12-5.4 12-12 12z"/><path class="st2" d="M80.7 42.7l-1.4-1.4-6.7 6.7 6.7 6.7 1.4-1.4-4.3-4.3H88v-2H76.4zM140 33c-6.1 0-11 4.9-11 11s4.9 11 11 11 11-4.9 11-11-4.9-11-11-11zm0 20c-5 0-9-4-9-9s4-9 9-9 9 4 9 9-4 9-9 9z"/><path transform="rotate(-45.001 154.015 57.952)" class="st2" d="M151.9 53h4.2v9.9h-4.2z"/><circle class="st2" cx="149" cy="53" r="1"/><path class="st2" d="M44 34h8v2h-8zM38 37v5h1v20h18V42h1v-5H38zm17 23H41V44h14v16z"/><path class="st2" d="M43 46h1v12h-1zM46 46h1v12h-1zM49 46h1v12h-1zM52 46h1v12h-1zM255 45l-11-1-4-11-4 11-11 1 9 7-3 11 9-7 9 7-3-11 9-7zm-13.8 9.4l-1.2-1-1.2 1-4.3 3.3 1.4-5.2.4-1.3-1.1-.8-5-3.9 6-.5 1.3-.1.4-1.2 2.1-5.8 2.1 5.8.4 1.2 1.3.1 6 .5-5 3.9-1.1.8.4 1.3 1.4 5.2-4.3-3.3zM208 53c5.5 0 10-4.5 10-10s-4.5-10-10-10-10 4.5-10 10 4.5 10 10 10zm0-18c4.4 0 8 3.6 8 8s-3.6 8-8 8-8-3.6-8-8 3.6-8 8-8zM216 55h-16c-2.2 0-4 1.8-4 4v4h24v-4c0-2.2-1.8-4-4-4z"/><path class="st1" d="M272 54.7l-7.2 5.7 2.3-8.8-7.5-5.8 9.1-.9 3.3-9 3.3 9 9.1.9-7.5 5.8 2.3 8.8z"/><path class="st2" d="M272 38.8l2.1 5.8.4 1.2 1.3.1 6 .5-5 3.9-1 .8.4 1.3 1.4 5.2-4.3-3.3-1.2-1-1.2 1-4.3 3.3 1.4-5.2.4-1.3-1-.8-5-3.9 6-.5 1.3-.1.4-1.2 1.9-5.8m0-5.8l-4 11-11 1 9 7-3 11 9-7 9 7-3-11 9-7-11-1-4-11zM346 34v-2h-4v2h-12v-2h-4v2h-6v30h32V34h-6zm2 26h-24V42h24v18z"/><path class="st2" d="M328 46h4v4h-4zM340 46h4v4h-4zM334 46h4v4h-4zM328 52h4v4h-4zM340 52h4v4h-4zM334 52h4v4h-4zM394.7 61.4L408.1 48l-13.4-13.4-2.8 2.8L402.5 48l-10.6 10.6zM445.4 42.7l-2.8-2.8L432 50.5l-10.6-10.6-2.8 2.8L432 56.1zM354.6 53.3l2.8 2.8L368 45.5l10.6 10.6 2.8-2.8L368 39.9zM469.3 34.6L455.9 48l13.4 13.4 2.8-2.8L461.5 48l10.6-10.6z"/><path class="st3" d="M20.3 74.3L16 78.6l-4.3-4.3-1.4 1.4 4.3 4.3-4.3 4.3 1.4 1.4 4.3-4.3 4.3 4.3 1.4-1.4-4.3-4.3 4.3-4.3z"/><path class="st3" d="M16 66C8.3 66 2 72.3 2 80s6.3 14 14 14 14-6.3 14-14-6.3-14-14-14zm0 26C9.4 92 4 86.6 4 80s5.4-12 12-12 12 5.4 12 12-5.4 12-12 12z"/><path transform="rotate(-45.001 186.48 69.551)" class="st3" d="M184.4 65.3h4.2v8.5h-4.2z"/><path class="st3" d="M165 85l6 6 15-15-6-6-15 15zm6 3.2l-3.2-3.2L180 72.8l3.2 3.2L171 88.2zM161 95l5-2-3-3zM111.3 74.7l4.3 4.3H104v2h11.6l-4.3 4.3 1.4 1.4 6.7-6.7-6.7-6.7z"/><path class="st3" d="M112 66c-7.7 0-14 6.3-14 14s6.3 14 14 14 14-6.3 14-14-6.3-14-14-14zm0 26c-6.6 0-12-5.4-12-12s5.4-12 12-12 12 5.4 12 12-5.4 12-12 12zM315.5 80c0-.6-.1-1.2-.2-1.8L319 75l-3.1-5.1-4.4 1.4c-1-.9-2.2-1.6-3.5-2.1l-1-4.2h-6l-1 4.2c-1.3.5-2.5 1.2-3.6 2.1l-4.4-1.4-3 5.1 3.6 3.2c-.2 1.2-.2 2.4 0 3.6L289 85l3.1 5.1 4.4-1.4c1 .9 2.2 1.6 3.5 2.1l1 4.2h6l1-4.2c1.3-.5 2.5-1.2 3.6-2.1l4.4 1.4 3-5.1-3.7-3.2c.1-.6.2-1.2.2-1.8zm.9 5.4l-1.4 2.3-2.9-.9-1.1-.3-.9.7c-.9.8-1.9 1.3-3 1.7l-1 .4-.3 1.1-.6 2.7h-2.8l-.6-2.7-.2-1.1-1-.4c-1.1-.4-2.1-1-3-1.7l-.9-.7-1.1.3-2.9.9-1.4-2.3 2.4-2.1.8-.7-.2-1.1c-.2-1-.2-2 0-3l.2-1.1-.8-.7-2.4-2.1 1.4-2.3 2.9.9 1.1.3.9-.7c.9-.8 1.9-1.3 3-1.7l1-.4.2-1.1.6-2.7h2.8l.6 2.7.2 1.1 1 .4c1.1.4 2.1 1 3 1.7l.9.7 1.1-.3 2.9-.9 1.4 2.3-2.4 2.1-.8.7.2 1.1c.2 1 .2 2 0 3l-.2 1.1.8.7 2.5 2.1z"/><path class="st3" d="M304 74c-3.3 0-6 2.7-6 6s2.7 6 6 6 6-2.7 6-6-2.7-6-6-6zm0 8c-1.1 0-2-.9-2-2s.9-2 2-2 2 .9 2 2-.9 2-2 2zM80 66c-7.7 0-14 6.3-14 14s6.3 14 14 14 14-6.3 14-14-6.3-14-14-14zm0 26c-6.6 0-12-5.4-12-12s5.4-12 12-12 12 5.4 12 12-5.4 12-12 12z"/><path class="st3" d="M80.7 74.7l-1.4-1.4-6.7 6.7 6.7 6.7 1.4-1.4-4.3-4.3H88v-2H76.4zM140 65c-6.1 0-11 4.9-11 11s4.9 11 11 11 11-4.9 11-11-4.9-11-11-11zm0 20c-5 0-9-4-9-9s4-9 9-9 9 4 9 9-4 9-9 9z"/><path transform="rotate(-45.001 154.014 89.95)" class="st3" d="M151.9 85h4.2v9.9h-4.2z"/><circle class="st3" cx="149" cy="85" r="1"/><path class="st3" d="M44 66h8v2h-8zM38 69v5h1v20h18V74h1v-5H38zm17 23H41V76h14v16z"/><path class="st3" d="M43 78h1v12h-1zM46 78h1v12h-1zM49 78h1v12h-1zM52 78h1v12h-1zM255 77l-11-1-4-11-4 11-11 1 9 7-3 11 9-7 9 7-3-11 9-7zm-13.8 9.4l-1.2-1-1.2 1-4.3 3.3 1.4-5.2.4-1.3-1.1-.8-5-3.9 6-.5 1.3-.1.4-1.2 2.1-5.8 2.1 5.8.4 1.2 1.3.1 6 .5-5 3.9-1.1.8.4 1.3 1.4 5.2-4.3-3.3zM208 85c5.5 0 10-4.5 10-10s-4.5-10-10-10-10 4.5-10 10 4.5 10 10 10zm0-18c4.4 0 8 3.6 8 8s-3.6 8-8 8-8-3.6-8-8 3.6-8 8-8zM216 87h-16c-2.2 0-4 1.8-4 4v4h24v-4c0-2.2-1.8-4-4-4z"/><path class="st1" d="M272 86.7l-7.2 5.7 2.3-8.8-7.5-5.8 9.1-.9 3.3-9 3.3 9 9.1.9-7.5 5.8 2.3 8.8z"/><path class="st3" d="M272 70.8l2.1 5.8.4 1.2 1.3.1 6 .5-5 3.9-1 .8.4 1.3 1.4 5.2-4.3-3.3-1.2-1-1.2 1-4.3 3.3 1.4-5.2.4-1.3-1-.8-5-3.9 6-.5 1.3-.1.4-1.2 1.9-5.8m0-5.8l-4 11-11 1 9 7-3 11 9-7 9 7-3-11 9-7-11-1-4-11zM346 66v-2h-4v2h-12v-2h-4v2h-6v30h32V66h-6zm2 26h-24V74h24v18z"/><path class="st3" d="M328 78h4v4h-4zM340 78h4v4h-4zM334 78h4v4h-4zM328 84h4v4h-4zM340 84h4v4h-4zM334 84h4v4h-4zM394.7 93.4L408.1 80l-13.4-13.4-2.8 2.8L402.5 80l-10.6 10.6zM445.4 74.7l-2.8-2.8L432 82.5l-10.6-10.6-2.8 2.8L432 88.1zM354.6 85.3l2.8 2.8L368 77.5l10.6 10.6 2.8-2.8L368 71.9zM469.3 66.6L455.9 80l13.4 13.4 2.8-2.8L461.5 80l10.6-10.6z"/><path class="st0" d="M491.5 26.8h-7.8c-1.2 0-2.2-1-2.2-2.2 0-.4 1-1 1.6-1.5.6-.6 1.1-1.3 1.5-2 .5-.9 1-1.8 1.3-2.8.4-1.2.7-2.4.9-3.6.2-1.5.3-3 .3-4.5 0-1.8.7-3.6 2-4.9 1.4-1.5 3.3-2.5 5.4-2.8-.1-.2-.1-.4-.1-.7 0-.4.2-.9.5-1.2.7-.7 1.7-.7 2.4 0 .3.3.5.7.5 1.2 0 .2 0 .5-.1.7 2.1.2 4 1.2 5.4 2.8 1.3 1.3 2 3.1 2 4.9 0 1.5.1 3 .3 4.5.2 1.2.5 2.4.9 3.6.3 1 .8 1.9 1.3 2.8.4.7.9 1.4 1.6 2 .6.5 1.6 1 1.6 1.5 0 1.2-1 2.2-2.2 2.2h-7.8M492.1 28.5c0 1.9 1.5 3.5 3.5 3.5h.3c2.1.1 4-1.4 4.3-3.5h-8.1z"/><path class="st2" d="M491.5 58.8h-7.8c-1.2 0-2.2-1-2.2-2.2 0-.4 1-1 1.6-1.5.6-.6 1.1-1.3 1.5-2 .5-.9 1-1.8 1.3-2.8.4-1.2.7-2.4.9-3.6.2-1.5.3-3 .3-4.5 0-1.8.7-3.6 2-4.9 1.4-1.5 3.3-2.5 5.4-2.8-.1-.2-.1-.4-.1-.7-.1-.9.6-1.7 1.5-1.8s1.7.6 1.8 1.5v.3c0 .2 0 .5-.1.7 2.1.2 4 1.2 5.4 2.8 1.3 1.3 2 3.1 2 4.9 0 1.5.1 3 .3 4.5.2 1.2.5 2.4.9 3.6.3 1 .8 1.9 1.3 2.8.4.7 1 1.4 1.6 2 .6.5 1.6 1 1.6 1.5 0 1.2-1 2.2-2.2 2.2h-7.8M492.1 60.5c0 1.9 1.5 3.5 3.5 3.5h.3c2.1.1 4-1.4 4.3-3.5h-8.1z"/><path class="st3" d="M491.5 90.8h-7.8c-1.2 0-2.2-1-2.2-2.2 0-.4 1-1 1.6-1.5.6-.6 1.1-1.3 1.5-2 .5-.9 1-1.8 1.3-2.8.4-1.2.7-2.4.9-3.6.2-1.5.3-3 .3-4.5 0-1.8.7-3.6 2-4.9 1.4-1.5 3.3-2.5 5.4-2.8-.1-.2-.1-.4-.1-.7-.1-.9.6-1.7 1.5-1.8s1.7.6 1.8 1.5v.3c0 .2 0 .5-.1.7 2.1.2 4 1.2 5.4 2.8 1.3 1.3 2 3.1 2 4.9 0 1.5.1 3 .3 4.5.2 1.2.5 2.4.9 3.6.3 1 .8 1.9 1.3 2.8.4.7 1 1.4 1.6 2 .6.5 1.6 1 1.6 1.5 0 1.2-1 2.2-2.2 2.2h-7.8M492.1 92.5c0 1.9 1.5 3.5 3.5 3.5h.3c2.1.1 4-1.4 4.3-3.5h-8.1z"/><path class="st0" d="M520 23c2.8 0 5-2.2 5-5s-2.2-5-5-5-5 2.2-5 5 2.2 5 5 5zm0-8c1.7 0 3 1.3 3 3s-1.3 3-3 3-3-1.3-3-3 1.3-3 3-3zM531 18c0 2.8 2.2 5 5 5s5-2.2 5-5-2.2-5-5-5-5 2.2-5 5zm5-3c1.7 0 3 1.3 3 3s-1.3 3-3 3-3-1.3-3-3 1.3-3 3-3zM533 7c0-2.8-2.2-5-5-5s-5 2.2-5 5 2.2 5 5 5 5-2.2 5-5zm-5 3c-1.7 0-3-1.3-3-3s1.3-3 3-3 3 1.3 3 3-1.3 3-3 3zM524 25h-8c-1.1 0-2 .9-2 2v3h12v-3c0-1.1-.9-2-2-2zM540 25h-8c-1.1 0-2 .9-2 2v3h12v-3c0-1.1-.9-2-2-2z"/><path class="st2" d="M520 55c2.8 0 5-2.2 5-5s-2.2-5-5-5-5 2.2-5 5 2.2 5 5 5zm0-8c1.7 0 3 1.3 3 3s-1.3 3-3 3-3-1.3-3-3 1.3-3 3-3zM531 50c0 2.8 2.2 5 5 5s5-2.2 5-5-2.2-5-5-5-5 2.2-5 5zm5-3c1.7 0 3 1.3 3 3s-1.3 3-3 3-3-1.3-3-3 1.3-3 3-3zM533 39c0-2.8-2.2-5-5-5s-5 2.2-5 5 2.2 5 5 5 5-2.2 5-5zm-5 3c-1.7 0-3-1.3-3-3s1.3-3 3-3 3 1.3 3 3-1.3 3-3 3zM524 57h-8c-1.1 0-2 .9-2 2v3h12v-3c0-1.1-.9-2-2-2zM540 57h-8c-1.1 0-2 .9-2 2v3h12v-3c0-1.1-.9-2-2-2z"/><path class="st3" d="M520 87c2.8 0 5-2.2 5-5s-2.2-5-5-5-5 2.2-5 5 2.2 5 5 5zm0-8c1.7 0 3 1.3 3 3s-1.3 3-3 3-3-1.3-3-3 1.3-3 3-3zM531 82c0 2.8 2.2 5 5 5s5-2.2 5-5-2.2-5-5-5-5 2.2-5 5zm5-3c1.7 0 3 1.3 3 3s-1.3 3-3 3-3-1.3-3-3 1.3-3 3-3zM533 71c0-2.8-2.2-5-5-5s-5 2.2-5 5 2.2 5 5 5 5-2.2 5-5zm-5 3c-1.7 0-3-1.3-3-3s1.3-3 3-3 3 1.3 3 3-1.3 3-3 3zM524 89h-8c-1.1 0-2 .9-2 2v3h12v-3c0-1.1-.9-2-2-2zM540 89h-8c-1.1 0-2 .9-2 2v3h12v-3c0-1.1-.9-2-2-2z"/><path class="st0" d="M559 9h2v14h-2z"/><path class="st0" d="M560 2c-7.7 0-14 6.3-14 14s6.3 14 14 14 14-6.3 14-14-6.3-14-14-14zm0 26c-6.6 0-12-5.4-12-12s5.4-12 12-12 12 5.4 12 12-5.4 12-12 12z"/><path class="st2" d="M559 41h2v14h-2z"/><path class="st2" d="M560 34c-7.7 0-14 6.3-14 14s6.3 14 14 14 14-6.3 14-14-6.3-14-14-14zm0 26c-6.6 0-12-5.4-12-12s5.4-12 12-12 12 5.4 12 12-5.4 12-12 12z"/><path class="st3" d="M559 73h2v14h-2z"/><path class="st3" d="M560 66c-7.7 0-14 6.3-14 14s6.3 14 14 14 14-6.3 14-14-6.3-14-14-14zm0 26c-6.6 0-12-5.4-12-12s5.4-12 12-12 12 5.4 12 12-5.4 12-12 12z"/><path class="st4" d="M20.3 106.3l-4.3 4.3-4.3-4.3-1.4 1.4 4.3 4.3-4.3 4.3 1.4 1.4 4.3-4.3 4.3 4.3 1.4-1.4-4.3-4.3 4.3-4.3z"/><path class="st4" d="M16 98c-7.7 0-14 6.3-14 14s6.3 14 14 14 14-6.3 14-14-6.3-14-14-14zm0 26c-6.6 0-12-5.4-12-12s5.4-12 12-12 12 5.4 12 12-5.4 12-12 12z"/><path transform="rotate(-45.001 186.48 101.552)" class="st4" d="M184.4 97.3h4.2v8.5h-4.2z"/><path class="st4" d="M165 117l6 6 15-15-6-6-15 15zm6 3.2l-3.2-3.2 12.2-12.2 3.2 3.2-12.2 12.2zM161 127l5-2-3-3zM111.3 106.7l4.3 4.3H104v2h11.6l-4.3 4.3 1.4 1.4 6.7-6.7-6.7-6.7z"/><path class="st4" d="M112 98c-7.7 0-14 6.3-14 14s6.3 14 14 14 14-6.3 14-14-6.3-14-14-14zm0 26c-6.6 0-12-5.4-12-12s5.4-12 12-12 12 5.4 12 12-5.4 12-12 12zM315.5 112c0-.6-.1-1.2-.2-1.8l3.7-3.2-3.1-5.1-4.4 1.4c-1.1-.9-2.3-1.6-3.6-2.1l-1-4.2h-6l-1 4.2c-1.3.5-2.5 1.2-3.6 2.1l-4.4-1.4-2.9 5.1 3.6 3.2c-.2 1.2-.2 2.4 0 3.6L289 117l3.1 5.1 4.4-1.4c1.1.9 2.3 1.6 3.6 2.1l1 4.2h6l1-4.2c1.3-.5 2.5-1.2 3.6-2.1l4.4 1.4 3-5.1-3.7-3.2c0-.6.1-1.2.1-1.8zm.9 5.4l-1.4 2.3-2.9-.9-1.1-.3-.9.7c-.9.8-1.9 1.3-3 1.7l-1 .4-.2 1.1-.6 2.7h-2.8l-.6-2.7-.2-1.1-1-.4c-1.1-.4-2.1-1-3-1.7l-.9-.7-1.1.3-2.9.9-1.4-2.3 2.4-2.1.8-.7-.2-1.1c-.2-1-.2-2 0-3l.2-1.1-.8-.7-2.4-2.1 1.4-2.3 2.9.9 1.1.3.9-.7c.9-.8 1.9-1.3 3-1.7l1-.4.2-1.1.6-2.7h2.8l.6 2.7.2 1.1 1 .4c1.1.4 2.1 1 3 1.7l.9.7 1.1-.3 2.9-.9 1.4 2.3-2.4 2.1-.8.7.2 1.1c.2 1 .2 2 0 3l-.2 1.1.8.7 2.4 2.1z"/><path class="st4" d="M304 106c-3.3 0-6 2.7-6 6s2.7 6 6 6 6-2.7 6-6-2.7-6-6-6zm0 8c-1.1 0-2-.9-2-2s.9-2 2-2 2 .9 2 2-.9 2-2 2zM80 98c-7.7 0-14 6.3-14 14s6.3 14 14 14 14-6.3 14-14-6.3-14-14-14zm0 26c-6.6 0-12-5.4-12-12s5.4-12 12-12 12 5.4 12 12-5.4 12-12 12z"/><path class="st4" d="M80.7 106.7l-1.4-1.4-6.7 6.7 6.7 6.7 1.4-1.4-4.3-4.3H88v-2H76.4zM140 97c-6.1 0-11 4.9-11 11s4.9 11 11 11 11-4.9 11-11-4.9-11-11-11zm0 20c-5 0-9-4-9-9s4-9 9-9 9 4 9 9-4 9-9 9z"/><path transform="rotate(-45.001 153.982 122.05)" class="st4" d="M151.9 117.1h4.2v9.9h-4.2z"/><circle class="st4" cx="149" cy="117" r="1"/><path class="st4" d="M44 98h8v2h-8zM38 101v5h1v20h18v-20h1v-5H38zm17 23H41v-16h14v16z"/><path class="st4" d="M43 110h1v12h-1zM46 110h1v12h-1zM49 110h1v12h-1zM52 110h1v12h-1zM255 109l-11-1-4-11-4 11-11 1 9 7-3 11 9-7 9 7-3-11 9-7zm-13.8 9.4l-1.2-1-1.2 1-4.3 3.3 1.4-5.2.4-1.3-1.1-.8-5-3.9 6-.5 1.3-.1.4-1.2 2.1-5.8 2.1 5.8.4 1.2 1.3.1 6 .5-5 3.9-1.1.8.4 1.3 1.4 5.2-4.3-3.3zM208 117c5.5 0 10-4.5 10-10s-4.5-10-10-10-10 4.5-10 10 4.5 10 10 10zm0-18c4.4 0 8 3.6 8 8s-3.6 8-8 8-8-3.6-8-8 3.6-8 8-8zM216 119h-16c-2.2 0-4 1.8-4 4v4h24v-4c0-2.2-1.8-4-4-4z"/><path class="st5" d="M272 118.7l-7.2 5.7 2.3-8.8-7.5-5.8 9.1-.9 3.3-9 3.3 9 9.1.9-7.5 5.8 2.3 8.8z"/><path class="st4" d="M272 102.8l2.1 5.8.4 1.2 1.3.1 6 .5-5 3.9-1 .8.4 1.3 1.4 5.2-4.3-3.3-1.2-1-1.2 1-4.3 3.3 1.4-5.2.4-1.3-1-.8-5-3.9 6-.5 1.3-.1.4-1.2 1.9-5.8m0-5.8l-4 11-11 1 9 7-3 11 9-7 9 7-3-11 9-7-11-1-4-11zM346 98v-2h-4v2h-12v-2h-4v2h-6v30h32V98h-6zm2 26h-24v-18h24v18z"/><path class="st4" d="M328 110h4v4h-4zM340 110h4v4h-4zM334 110h4v4h-4zM328 116h4v4h-4zM340 116h4v4h-4zM334 116h4v4h-4zM394.7 125.4l13.4-13.4-13.4-13.4-2.8 2.8 10.6 10.6-10.6 10.6zM445.4 106.7l-2.8-2.8-10.6 10.6-10.6-10.6-2.8 2.8 13.4 13.4zM354.6 117.3l2.8 2.8 10.6-10.6 10.6 10.6 2.8-2.8-13.4-13.4zM469.3 98.6L455.9 112l13.4 13.4 2.8-2.8-10.6-10.6 10.6-10.6zM491.5 122.8h-7.8c-1.2 0-2.2-1-2.2-2.2 0-.4 1-1 1.6-1.5.6-.6 1.1-1.3 1.5-2.1.5-.9 1-1.8 1.3-2.8.4-1.2.7-2.4.9-3.6.2-1.5.3-3 .3-4.5 0-1.8.7-3.6 2-4.9 1.4-1.5 3.3-2.5 5.4-2.8-.1-.2-.1-.4-.1-.7-.1-.9.6-1.7 1.5-1.8s1.7.6 1.8 1.5v.3c0 .2 0 .5-.1.7 2.1.2 4 1.2 5.4 2.8 1.3 1.3 2 3.1 2 4.9 0 1.5.1 3 .3 4.5.2 1.2.5 2.4.9 3.6.3 1 .8 1.9 1.3 2.8.4.8.9 1.5 1.5 2.1.6.5 1.6 1 1.6 1.5 0 1.2-1 2.2-2.2 2.2h-7.8M492.1 124.5c0 1.9 1.5 3.5 3.5 3.5h.3c2.1.1 4-1.4 4.3-3.5h-8.1zM520 119c2.8 0 5-2.2 5-5s-2.2-5-5-5-5 2.2-5 5 2.2 5 5 5zm0-8c1.7 0 3 1.3 3 3s-1.3 3-3 3-3-1.3-3-3 1.3-3 3-3zM531 114c0 2.8 2.2 5 5 5s5-2.2 5-5-2.2-5-5-5-5 2.2-5 5zm5-3c1.7 0 3 1.3 3 3s-1.3 3-3 3-3-1.3-3-3 1.3-3 3-3zM533 103c0-2.8-2.2-5-5-5s-5 2.2-5 5 2.2 5 5 5 5-2.2 5-5zm-5 3c-1.7 0-3-1.3-3-3s1.3-3 3-3 3 1.3 3 3-1.3 3-3 3zM524 121h-8c-1.1 0-2 .9-2 2v3h12v-3c0-1.1-.9-2-2-2zM540 121h-8c-1.1 0-2 .9-2 2v3h12v-3c0-1.1-.9-2-2-2zM560 98c-7.7 0-14 6.3-14 14s6.3 14 14 14 14-6.3 14-14-6.3-14-14-14zm0 26c-6.6 0-12-5.4-12-12s5.4-12 12-12 12 5.4 12 12-5.4 12-12 12z"/><path class="st0" d="M600.7 12.7l-1.4-1.4-6.3 6.3V1h-2v16.6l-6.3-6.3-1.4 1.4 8.7 8.7z"/><path class="st0" d="M605 18v8h-26v-8h-2v12h30V18z"/><path class="st2" d="M600.7 44.7l-1.4-1.4-6.3 6.3V33h-2v16.6l-6.3-6.3-1.4 1.4 8.7 8.7z"/><path class="st2" d="M605 50v8h-26v-8h-2v12h30V50z"/><path class="st3" d="M600.7 76.7l-1.4-1.4-6.3 6.3V65h-2v16.6l-6.3-6.3-1.4 1.4 8.7 8.7z"/><path class="st3" d="M605 82v8h-26v-8h-2v12h30V82z"/><path class="st4" d="M600.7 108.7l-1.4-1.4-6.3 6.3V97h-2v16.6l-6.3-6.3-1.4 1.4 8.7 8.7z"/><path class="st4" d="M605 114v8h-26v-8h-2v12h30v-12z"/><path class="st0" d="M658 14h-6v2h2v6h-2v2h8v-2h-2z"/><circle class="st0" cx="656" cy="10" r="2"/><path class="st0" d="M656 2c-7.7 0-14 6.3-14 14s6.3 14 14 14 14-6.3 14-14-6.3-14-14-14zm0 26c-6.6 0-12-5.4-12-12s5.4-12 12-12 12 5.4 12 12-5.4 12-12 12z"/><path class="st2" d="M658 46h-6v2h2v6h-2v2h8v-2h-2z"/><circle class="st2" cx="656" cy="42" r="2"/><path class="st2" d="M656 34c-7.7 0-14 6.3-14 14s6.3 14 14 14 14-6.3 14-14-6.3-14-14-14zm0 26c-6.6 0-12-5.4-12-12s5.4-12 12-12 12 5.4 12 12-5.4 12-12 12z"/><path class="st3" d="M658 78h-6v2h2v6h-2v2h8v-2h-2z"/><circle class="st3" cx="656" cy="74" r="2"/><path class="st3" d="M656 66c-7.7 0-14 6.3-14 14s6.3 14 14 14 14-6.3 14-14-6.3-14-14-14zm0 26c-6.6 0-12-5.4-12-12s5.4-12 12-12 12 5.4 12 12-5.4 12-12 12z"/><path class="st4" d="M658 110h-6v2h2v6h-2v2h8v-2h-2z"/><circle class="st4" cx="656" cy="106" r="2"/><path class="st4" d="M656 98c-7.7 0-14 6.3-14 14s6.3 14 14 14 14-6.3 14-14-6.3-14-14-14zm0 26c-6.6 0-12-5.4-12-12s5.4-12 12-12 12 5.4 12 12-5.4 12-12 12z"/><path class="st0" d="M689 9h-2v6h-6v2h6v6h2v-6h6v-2h-6z"/><path class="st0" d="M688 2c-7.7 0-14 6.3-14 14s6.3 14 14 14 14-6.3 14-14-6.3-14-14-14zm0 26c-6.6 0-12-5.4-12-12s5.4-12 12-12 12 5.4 12 12-5.4 12-12 12z"/><path class="st2" d="M689 41h-2v6h-6v2h6v6h2v-6h6v-2h-6z"/><path class="st2" d="M688 34c-7.7 0-14 6.3-14 14s6.3 14 14 14 14-6.3 14-14-6.3-14-14-14zm0 26c-6.6 0-12-5.4-12-12s5.4-12 12-12 12 5.4 12 12-5.4 12-12 12z"/><path class="st3" d="M689 73h-2v6h-6v2h6v6h2v-6h6v-2h-6z"/><path class="st3" d="M688 66c-7.7 0-14 6.3-14 14s6.3 14 14 14 14-6.3 14-14-6.3-14-14-14zm0 26c-6.6 0-12-5.4-12-12s5.4-12 12-12 12 5.4 12 12-5.4 12-12 12z"/><path class="st4" d="M689 105h-2v6h-6v2h6v6h2v-6h6v-2h-6z"/><path class="st4" d="M688 98c-7.7 0-14 6.3-14 14s6.3 14 14 14 14-6.3 14-14-6.3-14-14-14zm0 26c-6.6 0-12-5.4-12-12s5.4-12 12-12 12 5.4 12 12-5.4 12-12 12z"/><path class="st0" d="M734.7 7.7L728 1l-6.7 6.7 1.4 1.4 4.3-4.3v13.6c0 5.5-4.5 10-10 10s-10-4.5-10-10c0-2.7 1.1-5.2 2.9-7.1l-1.4-1.4c-4.7 4.7-4.7 12.3 0 17s12.3 4.7 17 0c2.3-2.3 3.5-5.3 3.5-8.5V4.8l4.3 4.3 1.4-1.4z"/><circle class="st0" cx="717" cy="18.4" r="3"/><path class="st2" d="M734.7 39.7L728 33l-6.7 6.7 1.4 1.4 4.3-4.3v13.6c0 5.5-4.5 10-10 10s-10-4.5-10-10c0-2.7 1.1-5.2 2.9-7.1l-1.4-1.4c-4.7 4.7-4.7 12.3 0 17s12.3 4.7 17 0c2.3-2.3 3.5-5.3 3.5-8.5V36.8l4.3 4.3 1.4-1.4z"/><circle class="st2" cx="717" cy="50.4" r="3"/><path class="st3" d="M734.7 71.7L728 65l-6.7 6.7 1.4 1.4 4.3-4.3v13.6c0 5.5-4.5 10-10 10s-10-4.5-10-10c0-2.7 1.1-5.2 2.9-7.1l-1.4-1.4c-4.7 4.7-4.7 12.3 0 17s12.3 4.7 17 0c2.3-2.3 3.5-5.3 3.5-8.5V68.8l4.3 4.3 1.4-1.4z"/><circle class="st3" cx="717" cy="82.4" r="3"/><path class="st4" d="M734.7 103.7L728 97l-6.7 6.7 1.4 1.4 4.3-4.3v13.6c0 5.5-4.5 10-10 10s-10-4.5-10-10c0-2.7 1.1-5.2 2.9-7.1l-1.4-1.4c-4.7 4.7-4.7 12.3 0 17s12.3 4.7 17 0c2.3-2.3 3.5-5.3 3.5-8.5v-13.6l4.3 4.3 1.4-1.4z"/><circle class="st4" cx="717" cy="114.4" r="3"/><path class="st0" d="M623 4.8v16.3h2V4.8l6.3 6.2 1.4-1.4L624 1l-8.7 8.6 1.4 1.4z"/><path class="st0" d="M637 18.2v7.9h-26v-7.9h-2V30h30V18.2z"/><path class="st2" d="M623 36.8v16.3h2V36.8l6.3 6.2 1.4-1.4L624 33l-8.7 8.6 1.4 1.4z"/><path class="st2" d="M637 50.2v7.9h-26v-7.9h-2V62h30V50.2z"/><path class="st3" d="M623 68.8v16.3h2V68.8l6.3 6.2 1.4-1.4L624 65l-8.7 8.6 1.4 1.4z"/><path class="st3" d="M637 82.2v7.9h-26v-7.9h-2V94h30V82.2z"/><path class="st4" d="M623 100.8v16.3h2v-16.3l6.3 6.2 1.4-1.4L624 97l-8.7 8.6 1.4 1.4z"/><path class="st4" d="M637 114.2v7.9h-26v-7.9h-2V126h30v-11.8z"/><path class="st0" d="M752 1l-14 14 3 3v13h22V18l3-3-14-14zm9 28h-18V16l9-9 9 9v13z"/><circle class="st0" cx="752" cy="16" r="2"/><path class="st2" d="M752 33l-14 14 3 3v13h22V50l3-3-14-14zm9 28h-18V48l9-9 9 9v13z"/><circle class="st2" cx="752" cy="48" r="2"/><path class="st3" d="M752 65l-14 14 3 3v13h22V82l3-3-14-14zm9 28h-18V80l9-9 9 9v13z"/><circle class="st3" cx="752" cy="80" r="2"/><path class="st4" d="M752 97l-14 14 3 3v13h22v-13l3-3-14-14zm9 28h-18v-13l9-9 9 9v13z"/><circle class="st4" cx="752" cy="112" r="2"/><path class="st0" d="M781.1 27.9v1c0 .2 0 .3-.1.5 0 .2-.1.3-.2.4-.1.1-.3.1-.4.1h-6.5c-1.6 0-3.1-.7-4.2-1.9s-1.7-2.8-1.7-4.4V8.3c0-1.7.6-3.3 1.7-4.4 1.1-1.2 2.6-1.9 4.2-1.9h6.5c.2 0 .3.1.5.2.1.1.2.3.2.5v1c0 .2 0 .3-.1.5 0 .2-.1.3-.2.4-.1.1-.3.1-.4.1h-6.5c-.9 0-1.7.3-2.3 1s-1 1.5-1 2.5v15.4c0 .9.4 1.8 1 2.5s1.4 1 2.3 1H780.5c.1 0 .2 0 .2.1l.2.1c.1.1.1.1.1.2 0 .2.1.3.1.4zM800 16c0 .4-.1.7-.4 1l-11.1 11.9c-.4.5-1.2.6-1.7.1l-.1-.1c-.3-.3-.4-.6-.4-1v-6.3h-9.1c-.4 0-.7-.2-.9-.4-.3-.3-.4-.6-.4-1v-8.4c0-.4.1-.7.4-1 .2-.3.6-.4.9-.4h9.1V4.1c0-.4.1-.7.4-1 .4-.5 1.2-.6 1.7-.1l.1.1L799.6 15c.3.3.4.6.4 1z"/><path class="st2" d="M781.1 59.9v1c0 .2 0 .3-.1.5 0 .2-.1.3-.2.4-.1.1-.3.1-.4.1h-6.5c-1.6 0-3.1-.7-4.2-1.8-1.1-1.2-1.7-2.8-1.7-4.5V40.3c0-1.7.6-3.3 1.7-4.5 1.1-1.2 2.6-1.9 4.2-1.8h6.5c.2 0 .3.1.5.2.1.1.2.3.2.5v1c0 .2 0 .3-.1.5 0 .2-.1.3-.2.4-.1.1-.3.1-.4.1h-6.5c-.9 0-1.7.3-2.3 1s-1 1.5-1 2.5v15.4c0 .9.4 1.8 1 2.5s1.4 1 2.3 1H780.5c.1 0 .2 0 .2.1l.2.1c.1.1.1.1.1.2 0 .2.1.3.1.4zM800 48c0 .4-.1.7-.4 1l-11.1 11.9c-.4.5-1.2.6-1.7.1l-.1-.1c-.3-.3-.4-.6-.4-1v-6.3h-9.1c-.4 0-.7-.2-.9-.4-.3-.3-.4-.6-.4-1v-8.4c0-.4.1-.7.4-1 .2-.3.6-.4.9-.4h9.1v-6.3c0-.4.1-.7.4-1 .4-.5 1.2-.6 1.7-.1l.1.1L799.6 47c.3.3.4.6.4 1z"/><path class="st3" d="M781.1 91.9v1c0 .2 0 .3-.1.5 0 .2-.1.3-.2.4-.1.1-.3.1-.4.1h-6.5c-1.6 0-3.1-.7-4.2-1.8-1.1-1.2-1.7-2.8-1.7-4.5V72.3c0-1.7.6-3.3 1.7-4.4 1.1-1.2 2.6-1.9 4.2-1.9h6.5c.2 0 .3.1.5.2.1.1.2.3.2.5v1c0 .2 0 .3-.1.5 0 .2-.1.3-.2.4-.1.1-.3.1-.4.1h-6.5c-.9 0-1.7.3-2.3 1s-1 1.5-1 2.5v15.4c0 .9.4 1.8 1 2.5s1.4 1 2.3 1H780.5c.1 0 .2 0 .2.1l.2.1c.1.1.1.1.1.2 0 .2.1.3.1.4zM800 80c0 .4-.1.7-.4 1l-11.1 11.9c-.4.5-1.2.6-1.7.1l-.1-.1c-.3-.3-.4-.6-.4-1v-6.3h-9.1c-.4 0-.7-.2-.9-.4-.3-.3-.4-.6-.4-1v-8.4c0-.4.1-.7.4-1 .2-.3.6-.4.9-.4h9.1v-6.3c0-.4.1-.7.4-1 .4-.5 1.2-.6 1.7-.1l.1.1L799.6 79c.3.3.4.6.4 1z"/><path class="st4" d="M781.1 123.9v1c0 .2 0 .3-.1.5 0 .2-.1.3-.2.4-.1.1-.3.1-.4.1h-6.5c-1.6 0-3.1-.7-4.2-1.8-1.1-1.2-1.7-2.8-1.7-4.5v-15.4c0-1.7.6-3.3 1.7-4.4 1.1-1.2 2.6-1.9 4.2-1.9h6.5c.2 0 .3.1.5.2.1.1.2.3.2.5v1c0 .2 0 .3-.1.5 0 .2-.1.3-.2.4-.1.1-.3.1-.4.1h-6.5c-.9 0-1.7.3-2.3 1s-1 1.5-1 2.5v15.4c0 .9.4 1.8 1 2.5s1.4 1 2.3 1H780.5c.1 0 .2 0 .2.1l.2.1c.1.1.1.1.1.2 0 .3.1.4.1.5zM800 112c0 .4-.1.7-.4 1l-11.1 11.9c-.4.5-1.2.6-1.7.1l-.1-.1c-.3-.3-.4-.6-.4-1v-6.3h-9.1c-.4 0-.7-.2-.9-.4-.3-.3-.4-.6-.4-1v-8.4c0-.4.1-.7.4-1 .2-.3.6-.4.9-.4h9.1v-6.3c0-.4.1-.7.4-1 .4-.5 1.2-.6 1.7-.1l.1.1 11.1 11.9c.3.2.4.6.4 1z"/><path class="st6" d="M20.3 139.3l-4.3 4.3-4.3-4.3-1.4 1.4 4.3 4.3-4.3 4.3 1.4 1.4 4.3-4.3 4.3 4.3 1.4-1.4-4.3-4.3 4.3-4.3z"/><path class="st6" d="M16 131c-7.7 0-14 6.3-14 14s6.3 14 14 14 14-6.3 14-14-6.3-14-14-14zm0 26c-6.6 0-12-5.4-12-12s5.4-12 12-12 12 5.4 12 12-5.4 12-12 12z"/><path transform="rotate(-45.001 186.482 133.55)" class="st6" d="M184.4 129.3h4.2v8.5h-4.2z"/><path class="st6" d="M165 149l6 6 15-15-6-6-15 15zm6 3.2l-3.2-3.2 12.2-12.2 3.2 3.2-12.2 12.2zM161 159l5-2-3-3zM111.3 139.7l4.3 4.3H104v2h11.6l-4.3 4.3 1.4 1.4 6.7-6.7-6.7-6.7z"/><path class="st6" d="M112 131c-7.7 0-14 6.3-14 14s6.3 14 14 14 14-6.3 14-14-6.3-14-14-14zm0 26c-6.6 0-12-5.4-12-12s5.4-12 12-12 12 5.4 12 12-5.4 12-12 12zM315.5 144c0-.6-.1-1.2-.2-1.8l3.7-3.2-3.1-5.1-4.4 1.4c-1.1-.9-2.3-1.6-3.6-2.1l-1-4.2h-6l-1 4.2c-1.3.5-2.5 1.2-3.6 2.1l-4.4-1.4-2.9 5.1 3.6 3.2c-.2 1.2-.2 2.4 0 3.6L289 149l3.1 5.1 4.4-1.4c1.1.9 2.3 1.6 3.6 2.1l1 4.2h6l1-4.2c1.3-.5 2.5-1.2 3.6-2.1l4.4 1.4 3-5.1-3.7-3.2c0-.6.1-1.2.1-1.8zm.9 5.4l-1.4 2.3-2.9-.9-1.1-.4-.9.7c-.9.8-1.9 1.3-3 1.7l-1 .4-.2 1.1-.6 2.7h-2.8l-.6-2.7-.2-1.1-1-.4c-1.1-.4-2.1-1-3-1.7l-.9-.7-1.1.4-2.9.9-1.4-2.3 2.4-2.1.8-.7-.2-1.1c-.2-1-.2-2 0-3l.2-1.1-.8-.7-2.4-2.1 1.4-2.3 2.9.9 1.1.4.9-.7c.9-.8 1.9-1.3 3-1.7l1-.4.2-1.1.6-2.7h2.8l.6 2.7.2 1.1 1 .4c1.1.4 2.1 1 3 1.7l.9.7 1.1-.4 2.9-.9 1.4 2.3-2.4 2.1-.8.7.2 1.1c.2 1 .2 2 0 3l-.2 1.1.8.7 2.4 2.1z"/><path class="st6" d="M304 138c-3.3 0-6 2.7-6 6s2.7 6 6 6 6-2.7 6-6-2.7-6-6-6zm0 8c-1.1 0-2-.9-2-2s.9-2 2-2 2 .9 2 2-.9 2-2 2zM80 131c-7.7 0-14 6.3-14 14s6.3 14 14 14 14-6.3 14-14-6.3-14-14-14zm0 26c-6.6 0-12-5.4-12-12s5.4-12 12-12 12 5.4 12 12-5.4 12-12 12z"/><path class="st6" d="M80.7 139.7l-1.4-1.4-6.7 6.7 6.7 6.7 1.4-1.4-4.3-4.3H88v-2H76.4zM140 130c-6.1 0-11 4.9-11 11s4.9 11 11 11 11-4.9 11-11-4.9-11-11-11zm0 20c-5 0-9-4-9-9s4-9 9-9 9 4 9 9-4 9-9 9z"/><path transform="rotate(-45.001 154.014 154.952)" class="st6" d="M151.9 150h4.2v9.9h-4.2z"/><circle class="st6" cx="149" cy="150" r="1"/><path class="st6" d="M44 130h8v2h-8zM38 133v5h1v20h18v-20h1v-5H38zm17 23H41v-16h14v16z"/><path class="st6" d="M43 142h1v12h-1zM46 142h1v12h-1zM49 142h1v12h-1zM52 142h1v12h-1zM255 141l-11-1-4-11-4 11-11 1 9 7-3 11 9-7 9 7-3-11 9-7zm-13.8 9.4l-1.2-1-1.2 1-4.3 3.3 1.4-5.2.4-1.3-1.1-.8-5-3.9 6-.5 1.3-.1.4-1.2 2.1-5.8 2.1 5.8.4 1.2 1.3.1 6 .5-5 3.9-1.1.8.4 1.3 1.4 5.2-4.3-3.3zM208 149c5.5 0 10-4.5 10-10s-4.5-10-10-10-10 4.5-10 10 4.5 10 10 10zm0-18c4.4 0 8 3.6 8 8s-3.6 8-8 8-8-3.6-8-8 3.6-8 8-8zM216 151h-16c-2.2 0-4 1.8-4 4v4h24v-4c0-2.2-1.8-4-4-4z"/><path class="st1" d="M272 151.7l-7.2 5.7 2.3-8.8-7.5-5.8 9.1-.9 3.3-9 3.3 9 9.1.9-7.5 5.8 2.3 8.8z"/><path class="st6" d="M272 135.9l2.1 5.8.4 1.2 1.3.1 6 .5-5 3.9-1 .8.4 1.3 1.4 5.2-4.3-3.3-1.2-1-1.2 1-4.3 3.3 1.4-5.2.4-1.3-1-.8-5-3.9 6-.5 1.3-.1.4-1.2 1.9-5.8m.1-5.9l-4 11-11 1 9 7-3 11 9-7 9 7-3-11 9-7-11-1-4-11zM346 131v-2h-4v2h-12v-2h-4v2h-6v30h32v-30h-6zm2 26h-24v-18h24v18z"/><path class="st6" d="M328 143h4v4h-4zM340 143h4v4h-4zM334 143h4v4h-4zM328 149h4v4h-4zM340 149h4v4h-4zM334 149h4v4h-4zM394.7 157.4l13.4-13.4-13.4-13.4-2.8 2.8 10.6 10.6-10.6 10.6zM445.4 139.7l-2.8-2.8-10.6 10.6-10.6-10.6-2.8 2.8 13.4 13.4zM354.6 150.3l2.8 2.8 10.6-10.6 10.6 10.6 2.8-2.8-13.4-13.4zM469.3 130.6L455.9 144l13.4 13.4 2.8-2.8-10.6-10.6 10.6-10.6zM491.5 154.8h-7.8c-1.2 0-2.2-1-2.2-2.2 0-.4 1-1 1.6-1.5.6-.6 1.1-1.3 1.5-2.1.5-.9 1-1.8 1.3-2.8.4-1.2.7-2.4.9-3.6.2-1.5.3-3 .3-4.5 0-1.8.7-3.6 2-4.9 1.4-1.5 3.3-2.5 5.4-2.8-.1-.2-.1-.4-.1-.7-.1-.9.6-1.7 1.5-1.8s1.7.6 1.8 1.5v.3c0 .2 0 .5-.1.7 2.1.2 4 1.2 5.4 2.8 1.3 1.3 2 3.1 2 4.9 0 1.5.1 3 .3 4.5.2 1.2.5 2.4.9 3.6.3 1 .8 1.9 1.3 2.8.4.8.9 1.5 1.5 2.1.6.5 1.6 1 1.6 1.5 0 1.2-1 2.2-2.2 2.2h-7.8M492.1 156.5c0 1.9 1.5 3.5 3.5 3.5h.3c2.1.1 4-1.4 4.3-3.5h-8.1zM520 151c2.8 0 5-2.2 5-5s-2.2-5-5-5-5 2.2-5 5 2.2 5 5 5zm0-8c1.7 0 3 1.3 3 3s-1.3 3-3 3-3-1.3-3-3 1.3-3 3-3zM531 146c0 2.8 2.2 5 5 5s5-2.2 5-5-2.2-5-5-5-5 2.2-5 5zm5-3c1.7 0 3 1.3 3 3s-1.3 3-3 3-3-1.3-3-3 1.3-3 3-3zM533 135c0-2.8-2.2-5-5-5s-5 2.2-5 5 2.2 5 5 5 5-2.2 5-5zm-5 3c-1.7 0-3-1.3-3-3s1.3-3 3-3 3 1.3 3 3-1.3 3-3 3zM524 153h-8c-1.1 0-2 .9-2 2v3h12v-3c0-1.1-.9-2-2-2zM540 153h-8c-1.1 0-2 .9-2 2v3h12v-3c0-1.1-.9-2-2-2zM559 137h2v14h-2z"/><path class="st6" d="M560 130c-7.7 0-14 6.3-14 14s6.3 14 14 14 14-6.3 14-14-6.3-14-14-14zm0 26c-6.6 0-12-5.4-12-12s5.4-12 12-12 12 5.4 12 12-5.4 12-12 12zM600.7 140.7l-1.4-1.4-6.3 6.3V129h-2v16.6l-6.3-6.3-1.4 1.4 8.7 8.7z"/><path class="st6" d="M605 146v8h-26v-8h-2v12h30v-12zM658 142h-6v2h2v6h-2v2h8v-2h-2z"/><circle class="st6" cx="656" cy="138" r="2"/><path class="st6" d="M656 130c-7.7 0-14 6.3-14 14s6.3 14 14 14 14-6.3 14-14-6.3-14-14-14zm0 26c-6.6 0-12-5.4-12-12s5.4-12 12-12 12 5.4 12 12-5.4 12-12 12zM689 137h-2v6h-6v2h6v6h2v-6h6v-2h-6z"/><path class="st6" d="M688 130c-7.7 0-14 6.3-14 14s6.3 14 14 14 14-6.3 14-14-6.3-14-14-14zm0 26c-6.6 0-12-5.4-12-12s5.4-12 12-12 12 5.4 12 12-5.4 12-12 12zM734.7 135.7L728 129l-6.7 6.7 1.4 1.4 4.3-4.3v13.6c0 5.5-4.5 10-10 10s-10-4.5-10-10c0-2.7 1.1-5.2 2.9-7.1l-1.4-1.4c-4.7 4.7-4.7 12.3 0 17s12.3 4.7 17 0c2.3-2.3 3.5-5.3 3.5-8.5v-13.6l4.3 4.3 1.4-1.4z"/><circle class="st6" cx="717" cy="146.4" r="3"/><path class="st6" d="M623 132.8v16.3h2v-16.3l6.3 6.2 1.4-1.4-8.7-8.6-8.7 8.6 1.4 1.4z"/><path class="st6" d="M637 146.2v7.9h-26v-7.9h-2V158h30v-11.8zM752 129l-14 14 3 3v13h22v-13l3-3-14-14zm9 28h-18v-13l9-9 9 9v13z"/><circle class="st6" cx="752" cy="144" r="2"/><path class="st6" d="M781.1 155.9v1c0 .2 0 .3-.1.5 0 .2-.1.3-.2.4-.1.1-.3.1-.4.1h-6.5c-1.6 0-3.1-.7-4.2-1.9s-1.7-2.8-1.7-4.4v-15.4c0-1.7.6-3.3 1.7-4.4 1.1-1.2 2.6-1.9 4.2-1.9h6.5c.2 0 .3.1.5.2.1.1.2.3.2.5v1c0 .2 0 .3-.1.5 0 .2-.1.3-.2.4-.1.1-.3.1-.4.1h-6.5c-.9 0-1.7.3-2.3 1s-1 1.5-1 2.5v15.4c0 .9.4 1.8 1 2.5s1.4 1 2.3 1H780.5c.1 0 .2 0 .2.1l.2.1c.1.1.1.1.1.2 0 .3.1.4.1.5zM800 144c0 .4-.1.7-.4 1l-11.1 11.9c-.4.5-1.2.6-1.7.1l-.1-.1c-.3-.3-.4-.6-.4-1v-6.3h-9.1c-.4 0-.7-.2-.9-.4-.3-.3-.4-.6-.4-1v-8.4c0-.4.1-.7.4-1 .2-.3.6-.4.9-.4h9.1v-6.3c0-.4.1-.7.4-1 .4-.5 1.2-.6 1.7-.1l.1.1 11.1 11.9c.3.2.4.6.4 1z"/><path class="st0" d="M803.5 21.7h7v7h-7zM812.5 21.7h7v7h-7zM821.5 21.7h7v7h-7zM803.5 12.7h7v7h-7zM812.5 12.7h7v7h-7zM821.5 12.7h7v7h-7zM803.5 3.7h7v7h-7zM812.5 3.7h7v7h-7zM821.5 3.7h7v7h-7z"/><path class="st2" d="M803.5 53.7h7v7h-7zM812.5 53.7h7v7h-7zM821.5 53.7h7v7h-7zM803.5 44.7h7v7h-7zM812.5 44.7h7v7h-7zM821.5 44.7h7v7h-7zM803.5 35.7h7v7h-7zM812.5 35.7h7v7h-7zM821.5 35.7h7v7h-7z"/><path class="st3" d="M803.5 85.7h7v7h-7zM812.5 85.7h7v7h-7zM821.5 85.7h7v7h-7zM803.5 76.7h7v7h-7zM812.5 76.7h7v7h-7zM821.5 76.7h7v7h-7zM803.5 67.7h7v7h-7zM812.5 67.7h7v7h-7zM821.5 67.7h7v7h-7z"/><path class="st4" d="M803.5 117.7h7v7h-7zM812.5 117.7h7v7h-7zM821.5 117.7h7v7h-7zM803.5 108.7h7v7h-7zM812.5 108.7h7v7h-7zM821.5 108.7h7v7h-7zM803.5 99.7h7v7h-7zM812.5 99.7h7v7h-7zM821.5 99.7h7v7h-7z"/><path class="st6" d="M803.5 149.7h7v7h-7zM812.5 149.7h7v7h-7zM821.5 149.7h7v7h-7zM803.5 140.7h7v7h-7zM812.5 140.7h7v7h-7zM821.5 140.7h7v7h-7zM803.5 131.7h7v7h-7zM812.5 131.7h7v7h-7zM821.5 131.7h7v7h-7z"/><path class="st0" d="M861.5 18.9v.1c-.7 3.1-2.4 5.9-4.9 8-2.5 2-5.5 3.1-8.7 3-1.8 0-3.5-.3-5.2-1-1.6-.7-3.2-1.6-4.4-2.9l-2.3 2.4c-.5.5-1.2.5-1.7 0-.2-.2-.3-.5-.3-.8v-8.2c0-.6.5-1.2 1.2-1.2h8.2c.6 0 1.2.5 1.2 1.1 0 .3-.1.6-.4.9l-2.5 2.5c.9.8 1.8 1.4 2.9 1.9 4.2 1.7 9 .1 11.4-3.8.4-.7.7-1.4 1-2.1.1-.3.3-.4.5-.4h3.5c.3 0 .6.2.5.5zm.5-14.6v8.2c0 .6-.5 1.2-1.2 1.2h-8.2c-.6 0-1.2-.5-1.2-1.1 0-.3.1-.6.4-.9l2.5-2.5c-1.7-1.6-4-2.5-6.4-2.5-3.2 0-6.3 1.7-8 4.4-.4.7-.7 1.4-1 2.1-.1.3-.3.4-.5.4h-3.6c-.3 0-.6-.3-.6-.6.7-3.2 2.4-6 5-8 2.5-2 5.6-3.1 8.8-3 1.8 0 3.5.3 5.2 1s3.2 1.6 4.5 2.8l2.4-2.3c.5-.5 1.2-.5 1.7 0 .1.2.2.5.2.8z"/><path class="st2" d="M861.5 50.9c-.7 3.2-2.4 6-4.9 8.1-2.5 2-5.5 3.1-8.7 3-1.8 0-3.5-.3-5.2-1-1.6-.7-3.2-1.6-4.4-2.9l-2.3 2.4c-.5.5-1.2.5-1.7 0-.2-.2-.3-.5-.3-.8v-8.2c0-.6.5-1.2 1.2-1.2h8.2c.6 0 1.2.5 1.2 1.1 0 .3-.1.6-.4.9l-2.5 2.5c.9.8 1.8 1.4 2.9 1.9 4.2 1.7 9 .1 11.4-3.8.4-.7.7-1.4 1-2.1.1-.3.3-.4.5-.4h3.5c.3 0 .6.2.5.5zm.5-14.6v8.2c0 .6-.5 1.2-1.2 1.2h-8.2c-.6 0-1.2-.5-1.2-1.1 0-.3.1-.6.4-.9l2.5-2.5c-1.7-1.6-4-2.5-6.4-2.5-3.2 0-6.3 1.7-8 4.5-.4.7-.7 1.4-1 2.1-.1.3-.3.4-.5.4h-3.6c-.3 0-.6-.3-.6-.6V45c.7-3.2 2.5-6 5-8s5.6-3.1 8.8-3c1.8 0 3.5.3 5.2 1s3.2 1.6 4.5 2.8l2.4-2.3c.5-.5 1.2-.5 1.7 0 .1.2.2.5.2.8z"/><path class="st3" d="M861.5 82.9c-.7 3.2-2.4 6-4.9 8.1-2.5 2-5.5 3.1-8.7 3-1.8 0-3.5-.3-5.2-1-1.6-.7-3.2-1.6-4.4-2.9l-2.3 2.3c-.5.5-1.2.5-1.7 0-.2-.2-.3-.5-.3-.8v-8.2c0-.6.5-1.2 1.2-1.2h8.2c.6 0 1.2.5 1.2 1.1 0 .3-.1.6-.4.9l-2.5 2.5c.9.8 1.8 1.4 2.9 1.9 4.2 1.7 9 .1 11.4-3.8.4-.7.7-1.4 1-2.1.1-.3.3-.4.5-.4h3.5c.3.1.6.3.5.6zm.5-14.6v8.2c0 .6-.5 1.2-1.2 1.2h-8.2c-.6 0-1.2-.5-1.2-1.1 0-.3.1-.6.4-.9l2.5-2.5c-1.7-1.6-4-2.5-6.4-2.5-3.2 0-6.3 1.7-8 4.4-.4.7-.7 1.4-1 2.1-.1.3-.3.4-.5.4h-3.6c-.3 0-.6-.3-.6-.6.7-3.2 2.5-6 5-8s5.6-3.1 8.8-3c1.8 0 3.5.3 5.2 1s3.2 1.6 4.5 2.8l2.4-2.3c.5-.5 1.2-.5 1.7 0 .1.2.2.5.2.8z"/><path class="st4" d="M861.5 114.9c-.7 3.2-2.4 6-4.9 8s-5.5 3.1-8.7 3c-1.8 0-3.5-.3-5.2-1-1.6-.7-3.2-1.6-4.4-2.9l-2.4 2.4c-.5.5-1.2.5-1.7 0-.2-.2-.3-.5-.3-.8v-8.2c0-.6.5-1.2 1.2-1.2h8.2c.6 0 1.2.5 1.2 1.1 0 .3-.1.6-.4.9l-2.5 2.5c.9.8 1.8 1.4 2.9 1.9 4.2 1.7 9 .1 11.4-3.8.4-.7.7-1.4 1-2.1.1-.3.3-.4.5-.4h3.5c.4.1.7.3.6.6zm.5-14.6v8.2c0 .6-.5 1.2-1.2 1.2h-8.2c-.6 0-1.2-.5-1.2-1.1 0-.3.1-.6.4-.9l2.5-2.5c-1.7-1.6-4-2.5-6.4-2.5-3.2 0-6.3 1.7-8 4.4-.4.7-.7 1.4-1 2.1-.1.3-.3.4-.5.4h-3.6c-.3 0-.6-.3-.6-.6.7-3.1 2.4-5.9 4.9-7.9s5.6-3.1 8.8-3.1c1.8 0 3.5.3 5.2 1s3.2 1.6 4.5 2.8l2.4-2.3c.5-.5 1.2-.5 1.7 0 .2.2.3.5.3.8z"/><path class="st6" d="M861.5 146.9v.1c-.7 3.1-2.4 5.9-4.9 7.9s-5.5 3.1-8.7 3c-1.8 0-3.5-.3-5.2-1-1.6-.7-3.2-1.6-4.4-2.9l-2.4 2.4c-.5.5-1.2.5-1.7 0-.2-.2-.3-.5-.3-.8v-8.2c0-.6.5-1.2 1.2-1.2h8.2c.6 0 1.2.5 1.2 1.1 0 .3-.1.6-.4.9l-2.5 2.5c.9.8 1.8 1.4 2.9 1.9 4.2 1.7 9 .1 11.4-3.8.4-.7.7-1.4 1-2.1.1-.3.3-.4.5-.4h3.5c.4.1.7.3.6.6zm.5-14.6v8.2c0 .6-.5 1.2-1.2 1.2h-8.2c-.6 0-1.2-.5-1.2-1.1 0-.3.1-.6.4-.9l2.5-2.5c-1.7-1.6-4-2.5-6.4-2.5-3.2 0-6.3 1.7-8 4.4-.4.7-.7 1.4-1 2.1-.1.3-.3.4-.5.4h-3.6c-.3 0-.6-.3-.6-.6.7-3.1 2.4-5.9 4.9-7.9s5.6-3.1 8.8-3c1.8 0 3.5.3 5.2 1s3.2 1.6 4.5 2.9l2.4-2.4c.5-.5 1.2-.5 1.7 0 .1.2.3.5.3.7z"/><path class="st4" d="M559 105h2v14h-2z"/><path class="st0" d="M892 5V0h-20v5h-4v12h4v5l8 8h12V17h4V5h-4zm-18-3h16v3h-16V2zm7 26v-7h-7v-8h16v15h-9z"/><path class="st2" d="M892 37v-5h-20v5h-4v12h4v5l8 8h12V49h4V37h-4zm-18-3h16v3h-16v-3zm7 26v-7h-7v-8h16v15h-9z"/><path class="st3" d="M892 69v-5h-20v5h-4v12h4v5l8 8h12V81h4V69h-4zm-18-3h16v3h-16v-3zm7 26v-7h-7v-8h16v15h-9z"/><path class="st4" d="M892 101v-5h-20v5h-4v12h4v5l8 8h12v-13h4v-12h-4zm-18-3h16v3h-16v-3zm7 26v-7h-7v-8h16v15h-9z"/><path class="st6" d="M892 133v-5h-20v5h-4v12h4v5l8 8h12v-13h4v-12h-4zm-18-3h16v3h-16v-3zm7 26v-7h-7v-8h16v15h-9z"/></svg>